<svg width="2068" height="2159" viewBox="0 0 2068 2159" fill="none" xmlns="http://www.w3.org/2000/svg">
<path d="M1074.59 948.25L1876.96 485L1234.37 114L1424.9 4" stroke="#E94F37" stroke-width="15"/>
<path d="M950.071 2152.75L10 1610L780.763 1165" stroke="#E94F37" stroke-width="15" stroke-linecap="round" stroke-linejoin="round"/>
<rect width="337" height="337" transform="matrix(0.866025 0.5 -0.866025 0.5 914 839)" fill="url(#paint0_linear)"/>
<rect width="226.321" height="226.321" transform="matrix(0.866025 0.5 -0.866025 0.5 914 895)" fill="url(#paint1_linear)"/>
<rect width="337" height="84" transform="matrix(0.866025 0.5 -2.20305e-08 1 622 1007)" fill="url(#paint2_linear)"/>
<rect width="337" height="84" transform="matrix(0.866025 -0.5 2.20305e-08 1 914 1176.5)" fill="url(#paint3_linear)"/>
<path d="M865.501 1024.69L961.755 991.343M961.755 1013.57L961.755 1035.8L923.253 1035.8M865.501 1002.46L865.501 980.229L904.003 980.229" stroke="white" stroke-width="12" stroke-linecap="round" stroke-linejoin="round"/>
<defs>
<linearGradient id="paint0_linear" x1="168.5" y1="0" x2="168.5" y2="337" gradientUnits="userSpaceOnUse">
<stop stop-color="#F3F3F3"/>
<stop offset="1" stop-color="#EDEDED"/>
</linearGradient>
<linearGradient id="paint1_linear" x1="113.161" y1="0" x2="113.161" y2="226.321" gradientUnits="userSpaceOnUse">
<stop stop-color="#E94F37"/>
<stop offset="1" stop-color="#F0803C"/>
</linearGradient>
<linearGradient id="paint2_linear" x1="-1.66303e-05" y1="44" x2="168.588" y2="213.295" gradientUnits="userSpaceOnUse">
<stop stop-color="#F3F3F3"/>
<stop offset="1" stop-color="#D6D6D6"/>
</linearGradient>
<linearGradient id="paint3_linear" x1="-1.90223e-05" y1="42.5" x2="168.637" y2="-130.346" gradientUnits="userSpaceOnUse">
<stop stop-color="#F3F3F3"/>
<stop offset="1" stop-color="#DBDBDB"/>
</linearGradient>
</defs>
</svg>
